<?xml version="1.0" encoding="utf-8"?>
<!-- Generator: Adobe Illustrator 19.2.0, SVG Export Plug-In . SVG Version: 6.00 Build 0)  -->
<svg version="1.1" id="图层_1" xmlns="http://www.w3.org/2000/svg" xmlns:xlink="http://www.w3.org/1999/xlink" x="0px" y="0px"
	 viewBox="0 0 42 64" style="enable-background:new 0 0 42 64;" xml:space="preserve">
<g>
	<path d="M38.6,13l-19,19l19,19c0.5,0.5,0.7,1,0.7,1.6s-0.2,1.2-0.7,1.6l-5.9,5.9c-0.5,0.5-1,0.7-1.6,0.7s-1.2-0.2-1.6-0.7L3,33.6
		c-0.5-0.5-0.7-1-0.7-1.6s0.2-1.2,0.7-1.6L29.5,3.9c0.5-0.5,1-0.7,1.6-0.7s1.2,0.2,1.6,0.7l5.9,5.9c0.5,0.5,0.7,1,0.7,1.6
		C39.3,12,39.1,12.6,38.6,13z" fill="#FFFFFF"/>
</g>
</svg>
