
<svg width="61px" height="10px" viewBox="0 0 61 10" version="1.1" xmlns="http://www.w3.org/2000/svg" xmlns:xlink="http://www.w3.org/1999/xlink">
    <g id="Page-1" stroke="none" stroke-width="1" fill="none" fill-rule="evenodd">
        <g id="iphone-x" transform="translate(-320.000000, -33.000000)">
            <g id="status-bar" transform="translate(32.000000, 29.000000)">
                <g id="battery" transform="translate(328.000000, 4.000000)">
                    <path d="M21,5 C21,6.01787206 20.3480727,6.85994569 19.5,7 L19.5,3 C20.3480727,3.14005431 21,3.98212794 21,5 Z" id="+" fill="#FFFFFF"></path>
                    <path d="M2,3 L2,7 C2,7.55228475 2.44771525,8 3,8 L13,8 L13,2 L3,2 C2.44771525,2 2,2.44771525 2,3 Z" id="charge" fill="#FFFFFF"></path>
                    <path d="M0.25,2 L0.25,8 C0.25,8.96649831 1.03350169,9.75 2,9.75 L17,9.75 C17.9664983,9.75 18.75,8.96649831 18.75,8 L18.75,2 C18.75,1.03350169 17.9664983,0.25 17,0.25 L2,0.25 C1.03350169,0.25 0.25,1.03350169 0.25,2 Z" stroke="#FFFFFF" stroke-width="0.5"></path>
                </g>
                <path d="M315.026271,5.68986301 C317.299442,5.68986301 319.371126,6.48383562 320.959593,7.78575342 L322.0625,6.63123288 C320.181174,5.08273973 317.724088,4 315.026271,4 C312.332555,4 309.878983,5.07945205 308,6.6230137 L309.100564,7.77917808 C310.687859,6.48109589 312.756029,5.68986301 315.026271,5.68986301 L315.026271,5.68986301 Z M315.026271,9.02246575 C316.388651,9.02246575 317.633302,9.49150685 318.593293,10.2641096 L319.760043,9.04219178 C318.490207,8.00876712 316.838482,7.33369863 315.026271,7.33369863 C313.217575,7.33369863 311.567022,8.00712329 310.298357,9.03726027 L311.46335,10.2608219 C312.422756,9.48986301 313.665649,9.02246575 315.026271,9.02246575 L315.026271,9.02246575 Z M317.425957,11.4860274 C316.776396,10.9747945 315.939991,10.6208219 315.025686,10.6208219 C314.113137,10.6208219 313.277904,10.9742466 312.628342,11.4832877 L315.025686,14 L317.425957,11.4860274 L317.425957,11.4860274 Z" id="wi-fi" fill="#FFFFFF"></path>
                <path d="M288,11 L290,11 L290,14 L288,14 L288,11 Z M292,8 L294,8 L294,14 L292,14 L292,8 Z M296,6 L298,6 L298,14 L296,14 L296,6 Z M300,4 L302,4 L302,14 L300,14 L300,4 Z" id="signal" fill="#FFFFFF"></path>
            </g>
        </g>
    </g>
</svg>