<?xml version="1.0" encoding="UTF-8"?>
<svg width="374px" height="374px" viewBox="0 0 374 374" version="1.1" xmlns="http://www.w3.org/2000/svg" xmlns:xlink="http://www.w3.org/1999/xlink">
    <!-- Generator: Sketch 53.2 (72643) - https://sketchapp.com -->
    <title>logo_purple_nobg</title>
    <desc>Created with Sketch.</desc>
    <g id="使用的图标" stroke="none" stroke-width="1" fill="none" fill-rule="evenodd">
        <g id="logo_purple_nobg" transform="translate(-69.000000, -61.000000)">
            <path d="M95.8877341,387.217881 C136.013748,332.855119 158.037715,267.128406 158.037715,198 C158.037715,192.74335 157.910758,187.502716 157.657668,182.280941 C157.636966,181.853828 157.615421,181.426847 157.593033,181 L201.646249,181 C201.906981,186.649977 202.037715,192.317642 202.037715,198 C202.037715,278.345742 175.837111,354.768674 128.254106,417.400011 L95.8877341,387.217881 Z" id="合并形状" fill="#584FC0" fill-rule="nonzero"></path>
            <path d="M249.037715,387.217881 C289.16373,332.855119 311.187697,267.128406 311.187697,198 C311.187697,192.74335 311.060739,187.502716 310.807649,182.280941 C310.786947,181.853828 310.765402,181.426847 310.743014,181 L354.79623,181 C355.056963,186.649977 355.187697,192.317642 355.187697,198 C355.187697,278.345742 328.987092,354.768674 281.404087,417.400011 L249.037715,387.217881 Z" id="合并形状-copy-16" fill="#584FC0" fill-rule="nonzero"></path>
            <path d="M356.35691,393.587705 C336.724932,382.548945 324.89431,363.07831 332.450011,342.319194 C340.005711,321.560078 362.959405,310.856595 383.718521,318.412295 C404.477637,325.967996 411.802481,343.789834 407.62542,369.680806 C404.840713,386.941453 401.746049,402.374023 398.341426,415.978516 C383.439734,408.410482 369.444895,400.946878 356.35691,393.587705 Z M370.537715,382 C385.173261,382 397.037715,370.135546 397.037715,355.5 C397.037715,340.864454 385.173261,329 370.537715,329 C355.90217,329 344.037715,340.864454 344.037715,355.5 C344.037715,370.135546 355.90217,382 370.537715,382 Z" id="合并形状" fill="#A4CA39"></path>
            <circle id="椭圆形" fill="#584FC0" cx="208.037715" cy="349" r="32"></circle>
            <circle id="椭圆形" fill="#584FC0" cx="371.037715" cy="356" r="21"></circle>
            <circle id="椭圆形" fill="#A4CA39" cx="371.037715" cy="356" r="15"></circle>
            <path d="M384.033404,368.495689 L395.033404,368.495689 L395.033404,392.995689 C395.033404,396.033255 392.570971,398.495689 389.533404,398.495689 L389.533404,398.495689 C386.495838,398.495689 384.033404,396.033255 384.033404,392.995689 L384.033404,368.495689 Z" id="矩形" fill="#584FC0" transform="translate(389.533404, 383.495689) rotate(-34.000000) translate(-389.533404, -383.495689) "></path>
            <rect id="矩形" fill="#584FC0" x="117.037715" y="79" width="278" height="48"></rect>
            <rect id="矩形-copy-84" fill="#584FC0" transform="translate(396.572325, 138.064410) rotate(64.000000) translate(-396.572325, -138.064410) " x="342.072325" y="114.06441" width="109" height="48"></rect>
            <rect id="矩形-copy-85" fill="#584FC0" transform="translate(114.500000, 138.505183) scale(-1, 1) rotate(64.000000) translate(-114.500000, -138.505183) " x="60" y="114.505183" width="109" height="48"></rect>
        </g>
    </g>
</svg>