<?xml version="1.0" encoding="UTF-8"?>
<svg width="224px" height="207px" viewBox="0 0 224 207" version="1.1" xmlns="http://www.w3.org/2000/svg" xmlns:xlink="http://www.w3.org/1999/xlink">
    <!-- Generator: Sketch 53.2 (72643) - https://sketchapp.com -->
    <title>两码事小程序logo_a</title>
    <desc>Created with Sketch.</desc>
    <defs>
        <linearGradient x1="37.8321131%" y1="1.50488559%" x2="38.2717888%" y2="53.3789254%" id="linearGradient-1">
            <stop stop-color="#016F12" offset="0%"></stop>
            <stop stop-color="#1FAB54" offset="27.8246929%"></stop>
            <stop stop-color="#14EF67" offset="100%"></stop>
        </linearGradient>
        <linearGradient x1="29.5242096%" y1="1.50488559%" x2="30.2640839%" y2="53.3789254%" id="linearGradient-2">
            <stop stop-color="#016F12" offset="0%"></stop>
            <stop stop-color="#1FAB54" offset="27.8246929%"></stop>
            <stop stop-color="#14EF67" offset="100%"></stop>
        </linearGradient>
        <linearGradient x1="-6.34528167%" y1="12.8110275%" x2="100%" y2="12.8110275%" id="linearGradient-3">
            <stop stop-color="#1FAB54" offset="0%"></stop>
            <stop stop-color="#14EF67" offset="44.1090137%"></stop>
            <stop stop-color="#14EF67" offset="60.9400793%"></stop>
            <stop stop-color="#1FAB54" offset="100%"></stop>
        </linearGradient>
    </defs>
    <g id="Page-1" stroke="none" stroke-width="1" fill="none" fill-rule="evenodd">
        <g id="小程序1" transform="translate(-263.000000, -351.000000)">
            <g id="两码事小程序logo_a" transform="translate(263.000000, 351.000000)">
                <g id="Group-2">
                    <path d="M15.7220496,26.8479804 L15.7220496,26.8479804 L17.7732852,27.0840935 C19.2081381,27.2492562 20.5964187,27.6953756 21.8588853,28.3969877 L45.4343317,41.4989729 L45.347495,107.685284 C45.3387877,114.321893 48.7935766,120.482087 54.4609627,123.935403 L99.6328227,151.46003 L65.2987237,171.629788 C58.9336706,175.368974 51.0264355,175.297913 44.7296122,171.444936 L9.08270225,149.632871 C3.43923079,146.179675 -0.00153716959,140.039408 -0.000532664309,133.423266 L0.0131660162,43.197348 C0.0144993458,34.4154154 6.94717806,27.2000769 15.7220496,26.8479804 Z" id="Rectangle" fill="url(#linearGradient-1)"></path>
                    <path d="M195.449848,160.705326 L195.563606,160.636491 L163.866981,139.58773 C158.550477,136.057202 151.944219,135.315619 146.072791,137.414354 L168.087652,124.609869 C174.253374,121.023705 178.042547,114.425252 178.0322,107.292469 L177.937645,42.1108329 L201.746929,28.9572561 C203.110574,28.2039026 204.618689,27.7488007 206.171432,27.6220796 L207.721118,27.4956079 C216.430263,27.7321684 223.36789,34.8597127 223.369212,43.5720703 L223.382788,132.989046 C223.383871,140.123765 219.584093,146.718769 213.411084,150.296223 L195.449848,160.705326 Z M184.600005,166.993153 L168.243109,176.47249 L145.691451,161.596864 L151.646931,158.175301 C155.153323,156.160796 159.482315,156.232637 162.919932,158.36238 L175.180757,165.95846 C178.036841,167.72792 181.503257,168.074533 184.600005,166.993153 Z M133.084457,196.848039 L121.540567,203.538088 C115.387814,207.103802 107.804423,207.134247 101.623238,203.61805 L66.550578,183.666794 L83.1921866,173.987549 L118.711094,195.683037 C123.08113,198.352321 128.420928,198.747449 133.084457,196.848039 Z M95.1860849,167.011547 L110.922718,157.858662 L135.331015,172.102153 L129.042357,175.838486 C125.615082,177.874761 121.354319,177.897347 117.905649,175.897521 L104.173607,167.93454 C101.417294,166.3362 98.1412076,166.029296 95.1860849,167.011547 Z" id="Combined-Shape" fill="url(#linearGradient-2)"></path>
                    <path d="M6.71386719,30.0180664 L6.71386719,30.0180664 C10.9045084,27.2611507 16.1373754,26.6053519 20.8787418,28.2428813 L21.00569,28.2867255 L102.260615,73.4209536 C108.294935,76.7728044 115.631155,76.7760477 121.668437,73.4295337 L200.614839,29.6689049 L202.435708,28.9117121 C207.050032,26.9928851 212.322694,27.5459002 216.438477,30.3803711 L216.438477,30.3803711 L178.432805,3.71783525 C172.168021,-0.677167397 163.944543,-1.11200659 157.251194,2.5977989 L121.634843,22.3382533 C115.607394,25.6789827 108.284632,25.6813047 102.255065,22.3443985 L67.2058554,2.94732952 C60.6927718,-0.657166367 52.7167341,-0.346180462 46.5040752,3.75449245 L6.71386719,30.0180664 Z" id="Path-9" fill="url(#linearGradient-3)"></path>
                </g>
            </g>
        </g>
    </g>
</svg>