<svg width="69px" height="28px" viewBox="0 0 69 28" version="1.1" xmlns="http://www.w3.org/2000/svg" xmlns:xlink="http://www.w3.org/1999/xlink">
    <g id="Page-1" stroke="none" stroke-width="1" fill="none" fill-rule="evenodd">
        <g id="分组-2">
            <rect id="矩形" fill="#2E3D88" x="0" y="0" width="69" height="28" rx="14"></rect>
            <g id="option-dot-b" transform="translate(7.000000, 4.000000)">
                <g id="分组">
                    <path d="M2.23529412,12.6947368 C1.01286765,12.6947368 0,11.4736842 0,10 C0,8.52631579 1.01286765,7.30526316 2.23529412,7.30526316 C3.45772059,7.30526316 4.47058824,8.52631579 4.47058824,10 C4.47058824,11.4736842 3.42279412,12.6947368 2.23529412,12.6947368 Z M9.5,14 C7.71875,14 6.18198529,12.1894737 6.18198529,10 C6.18198529,7.81052632 7.68382353,6 9.5,6 C11.3161765,6 12.8180147,7.81052632 12.8180147,10 C12.8180147,12.1894737 11.28125,14 9.5,14 Z M16.7647059,12.6947368 C15.5422794,12.6947368 14.5294118,11.4736842 14.5294118,10 C14.5294118,8.52631579 15.5422794,7.30526316 16.7647059,7.30526316 C17.9871324,7.30526316 19,8.52631579 19,10 C19,11.4736842 17.9871324,12.6947368 16.7647059,12.6947368 Z" id="形状" fill="#FFFFFF" fill-rule="nonzero"></path>
                    <g id="dot-circled" transform="translate(35.677382, 0.000000)" fill="#FFFFFF" fill-rule="nonzero">
                        <path d="M11.9890511,9.48360656 C11.9890511,10.3032787 11.6934307,11.0245902 11.1021898,11.6147541 C10.5109489,12.204918 9.82116788,12.5 8.96715328,12.5 C8.1459854,12.5 7.42335766,12.204918 6.83211679,11.6147541 C6.24087591,11.0245902 5.94525547,10.3360656 5.94525547,9.48360656 C5.94525547,8.66393443 6.24087591,7.94262295 6.83211679,7.35245902 C7.42335766,6.76229508 8.11313869,6.46721311 8.96715328,6.46721311 C9.78832117,6.46721311 10.5109489,6.76229508 11.1021898,7.35245902 C11.6934307,7.94262295 11.9890511,8.66393443 11.9890511,9.48360656 Z M9,3.12295082 C7.85036496,3.12295082 6.76642336,3.41803279 5.81386861,3.97540984 C4.86131387,4.53278689 4.0729927,5.31967213 3.48175182,6.30327869 C2.89051095,7.28688525 2.62773723,8.33606557 2.62773723,9.48360656 C2.62773723,10.6311475 2.92335766,11.7131148 3.48175182,12.6639344 C4.04014599,13.6147541 4.82846715,14.4016393 5.81386861,14.9918033 C6.79927007,15.5819672 7.85036496,15.8442623 9,15.8442623 C10.149635,15.8442623 11.2335766,15.5491803 12.1861314,14.9918033 C13.1715328,14.4344262 13.9270073,13.647541 14.5182482,12.6639344 C15.0766423,11.6803279 15.3722628,10.6311475 15.3722628,9.48360656 C15.3722628,8.33606557 15.0766423,7.25409836 14.5182482,6.30327869 C13.959854,5.35245902 13.1715328,4.56557377 12.1861314,3.97540984 C11.2007299,3.3852459 10.149635,3.12295082 9,3.12295082 Z M18,9.48360656 C18,11.1229508 17.6058394,12.6311475 16.7846715,14.0081967 C15.9635036,15.3852459 14.879562,16.4672131 13.5,17.2868852 C12.120438,18.1065574 10.6094891,18.5 8.96715328,18.5 C7.32481752,18.5 5.81386861,18.1065574 4.43430657,17.2868852 C3.05474453,16.4672131 1.97080292,15.3852459 1.14963504,14.0081967 C0.328467153,12.6311475 0,11.1229508 0,9.48360656 C0,7.8442623 0.394160584,6.33606557 1.21532847,4.95901639 C2.03649635,3.58196721 3.12043796,2.5 4.5,1.68032787 C5.87956204,0.860655738 7.35766423,0.5 9,0.5 C10.6423358,0.5 12.1532847,0.893442623 13.5328467,1.71311475 C14.9124088,2.53278689 15.9963504,3.6147541 16.8175182,4.99180328 C17.6386861,6.36885246 18,7.8442623 18,9.48360656 Z" id="形状"></path>
                    </g>
                    <path d="M27.1773822,2.12295082 L27.1773822,18" id="直线" stroke="#63768C" stroke-linecap="square"></path>
                </g>
            </g>
        </g>
    </g>
</svg>